<svg width="794" height="558" viewBox="0 0 794 558" fill="none" xmlns="http://www.w3.org/2000/svg">
<g id="header 1">
<path id="Vector" d="M393.155 558C610.288 558 786.31 546.076 786.31 531.366C786.31 516.656 610.288 504.732 393.155 504.732C176.021 504.732 0 516.656 0 531.366C0 546.076 176.021 558 393.155 558Z" fill="#E6E6E6"/>
<path id="Vector_2" d="M700.307 546.281C636.2 535.398 566.096 537.207 492.56 546.281C526.077 519.292 555.004 492.303 521.487 465.313C586.866 478.179 596.023 476.876 668.751 465.313C651.882 492.303 683.438 519.292 700.307 546.281Z" fill="#6C63FF"/>
<path id="Vector_3" opacity="0.2" d="M700.307 546.281C636.2 535.398 566.096 537.207 492.56 546.281C526.077 519.292 555.004 492.303 521.487 465.313C586.866 478.179 596.023 476.876 668.751 465.313C651.882 492.303 683.438 519.292 700.307 546.281Z" fill="black"/>
<path id="Vector_4" d="M684.67 534.767C630.214 526.079 570.663 527.523 508.197 534.767C536.668 513.223 561.241 491.68 532.769 470.137C588.306 480.406 596.085 479.366 657.864 470.137C643.535 491.68 670.341 513.223 684.67 534.767Z" fill="#6C63FF"/>
<path id="Vector_5" d="M663.928 500.055C679.953 500.055 692.944 487.664 692.944 472.379C692.944 457.093 679.953 444.702 663.928 444.702C647.903 444.702 634.913 457.093 634.913 472.379C634.913 487.664 647.903 500.055 663.928 500.055Z" fill="#2F2E41"/>
<path id="Vector_6" d="M532.211 440.277L552.315 443.474L562.368 471.173L533.328 488.219L499.82 440.277H531.094H532.211Z" fill="#A0616A"/>
<path id="Vector_7" d="M589.174 482.892C615.082 482.892 636.084 462.859 636.084 438.147C636.084 413.435 615.082 393.401 589.174 393.401C563.266 393.401 542.263 413.435 542.263 438.147C542.263 462.859 563.266 482.892 589.174 482.892Z" fill="#A0616A"/>
<path id="Vector_8" d="M330.049 275.146C330.049 275.146 216.123 286.865 196.019 284.734C175.915 282.604 166.979 280.473 166.979 280.473C166.979 280.473 153.576 297.519 160.278 304.976C164.031 309.274 168.572 312.884 173.681 315.63C173.681 315.63 185.967 312.434 194.902 315.63C203.837 318.826 294.308 332.676 309.945 319.891C325.581 307.107 330.049 275.146 330.049 275.146Z" fill="#2F2E41"/>
<path id="Vector_9" d="M337.867 512.722C337.867 512.722 263.034 492.48 249.631 402.99V394.467C249.631 394.467 234.825 419.243 229.526 424.297C223.383 430.156 201.604 482.892 202.72 488.219C203.837 493.546 202.72 495.676 202.72 495.676L170.33 492.48V482.892C170.33 482.892 187.642 433.353 188.759 421.634C189.876 409.915 231.76 328.414 231.76 328.414C231.76 328.414 247.397 297.519 274.203 328.414C301.009 359.31 303.243 380.617 303.243 380.617L337.867 444.539L337.867 512.722Z" fill="#2F2E41"/>
<path id="Vector_10" d="M170.33 277.277L134.589 265.558C134.589 265.558 101.081 242.12 108.899 265.558C116.718 288.996 152.459 340.133 162.511 334.806C172.564 329.48 184.653 316.257 181.959 314.346C179.265 312.434 161.395 298.584 170.33 277.277Z" fill="#2F2E41"/>
<path id="Vector_11" d="M174.65 476.602L145.798 490.042C145.798 490.042 110.907 495.162 130.365 504.763C149.824 514.363 203.502 524.603 206.186 515.643C208.87 506.683 207.805 491.812 204.983 492.207C202.16 492.602 182.702 494.522 174.65 476.602Z" fill="#2F2E41"/>
<path id="Vector_12" d="M323.347 442.408C323.347 442.408 308.828 502.068 333.4 514.853C357.972 527.637 529.977 529.768 543.38 506.33C556.783 482.892 550.082 482.892 550.082 482.892L514.34 444.539L543.38 442.408C543.38 442.408 543.38 433.885 533.328 432.82C523.276 431.755 492.002 421.101 465.196 428.558C438.39 436.016 422.753 413.643 422.753 413.643L323.347 442.408Z" fill="#575A89"/>
<path id="Vector_13" d="M304.36 255.969L285.372 355.049L416.052 340.134L439.507 250.643L304.36 255.969Z" fill="#3F3D56"/>
<path id="Vector_14" d="M308.27 259.698L292.633 348.123L411.584 334.807L434.481 254.372L308.27 259.698Z" fill="white"/>
<path id="Vector_15" d="M289.84 356.114L285.372 355.049L283.139 359.309L318.88 454.127L322.241 452.901L323.347 446.67L289.84 356.114Z" fill="#B3B3B3"/>
<path id="Vector_16" d="M285.372 353.983L321.114 453.062L456.26 433.885L416.052 340.134L285.372 353.983Z" fill="#D0CDE1"/>
<path id="Vector_17" d="M303.243 350.787V356.114L402.648 345.46L401.532 340.134L303.243 350.787Z" fill="#3F3D56"/>
<path id="Vector_18" d="M305.477 361.441L321.114 402.99L422.753 391.271L404.883 351.852L305.477 361.441Z" fill="#3F3D56"/>
<path id="right-hand" d="M432.805 420.036L429.455 411.513C429.455 411.513 403.766 368.898 390.363 377.421C376.96 385.944 418.285 427.493 418.285 427.493H431.688L432.805 420.036Z" fill="#A0616A"/>
<path id="left-hand" d="M347.92 426.428L344.569 413.643C344.569 413.643 335.634 374.225 351.27 376.356C366.907 378.486 371.375 415.774 371.375 415.774L370.258 424.297L347.92 426.428Z" fill="#A0616A"/>
<path id="Vector_19" d="M374.726 421.101C374.726 421.101 345.686 416.839 344.569 423.232C343.452 429.624 337.867 525.506 365.79 528.703C393.713 531.899 532.211 545.748 517.691 512.722C503.171 479.696 480.833 483.957 480.833 483.957L385.895 493.546L374.726 421.101Z" fill="#575A89"/>
<path id="Vector_20" d="M462.403 433.353L432.806 413.643L413.259 428.026L437.832 453.595L462.403 433.353Z" fill="#575A89"/>
<path id="Vector_21" opacity="0.2" d="M383.103 452.529L387.57 493.013L464.638 488.752L397.622 487.686L383.103 452.529Z" fill="black"/>
<path id="Vector_22" d="M612.33 499.545C643.173 499.545 668.176 475.696 668.176 446.277C668.176 416.858 643.173 393.009 612.33 393.009C581.487 393.009 556.484 416.858 556.484 446.277C556.484 475.696 581.487 499.545 612.33 499.545Z" fill="#2F2E41"/>
<path id="Vector_23" d="M325.023 290.594L394.272 288.295L400.973 263.96L329.491 266.018L325.023 290.594Z" fill="#6C63FF"/>
<path id="Vector_24" d="M307.153 304.444L412.142 301.247L413.259 296.986L308.27 300.512L307.153 304.444Z" fill="#E6E6E6"/>
<path id="Vector_25" d="M304.918 315.097L409.909 311.901L411.026 307.639L306.035 311.165L304.918 315.097Z" fill="#E6E6E6"/>
<path id="Vector_26" d="M303.802 323.62L408.791 320.424L409.909 316.163L304.918 319.688L303.802 323.62Z" fill="#E6E6E6"/>
</g>
</svg>
